# xmcd
#
# Track frame offsets: 
#        150
#        18777
#        41543
#        67222
#        98396
#        126311
#        149439
#        175137
#        199896
#        222545
#
# Disc length: 3282 seconds
#
# Revision: 0
# Processed by: cddbd v1.5.2PL0 Copyright (c) Steve Scherf et al.
# Submitted via: ExactAudioCopy v1.0b3
#
DISCID=930cd00a
DTITLE=Ngoc Lan, Khanh Ha - Tinh Ca
DYEAR=1992
DGENRE=Contemporary Pop
TTITLE0=Khanh Ha - Tinh ca
TTITLE1=Elvis Phuong - Con chut gi de nho
TTITLE2=Ngoc Lan - Canh chim troi
TTITLE3=Duy Quang - Toi voi troi bo vo
TTITLE4=Khanh Ha - Anh da quen mua thu
TTITLE5=Elvis Phuong - Ngay tro ve
TTITLE6=Ngoc Lan - Sai Gon oi vinh biet
TTITLE7=Duy Quang - Diep khuc buon
TTITLE8=Khanh Ha - Huong ve Ha Noi
TTITLE9=Ngoc Lan - Nang que huong
EXTD=
EXTT0=
EXTT1=
EXTT2=
EXTT3=
EXTT4=
EXTT5=
EXTT6=
EXTT7=
EXTT8=
EXTT9=
PLAYORDER=
